<svg width="166" height="165" viewBox="0 0 166 165" fill="none" xmlns="http://www.w3.org/2000/svg">
<circle cx="81" cy="83" r="78" fill="#131E39"/>
<path d="M46.2117 46H71.3043C72.3264 46 73.184 46.7707 73.2929 47.7869L81.65 125.787C81.7767 126.969 80.8503 128 79.6614 128H38.3189C37.1347 128 36.2098 126.977 36.3291 125.799L44.2219 47.7986C44.3253 46.7773 45.1851 46 46.2117 46Z" fill="#131E39" stroke="white" stroke-width="2"/>
<path d="M57.4024 42.4371C63.5752 34.3527 47.9613 22.7759 59.3015 14" stroke="white" stroke-width="2"/>
<path d="M66.4024 42.4371C72.5882 36.6548 56.9932 28.4141 68.3475 22.1297" stroke="white" stroke-width="2"/>
<path d="M48.3564 42.3074C54.5422 36.5251 38.9472 28.2844 50.3015 22" stroke="white" stroke-width="2"/>
<path d="M96.8586 95H122.674C123.587 95 124.384 95.6179 124.611 96.5019L132.068 125.502C132.393 126.767 131.438 128 130.131 128H89.8158C88.5202 128 87.5665 126.787 87.8723 125.528L94.9151 96.528C95.1329 95.6313 95.9359 95 96.8586 95Z" fill="#131E39" stroke="white" stroke-width="2"/>
<rect x="52" y="84" width="13" height="44" fill="#131E39" stroke="white" stroke-width="2"/>
<path fill-rule="evenodd" clip-rule="evenodd" d="M58.9917 54.6667C54.3917 54.6667 50.6667 58.4 50.6667 63C50.6667 67.6 54.3917 71.3333 58.9917 71.3333C63.6 71.3333 67.3333 67.6 67.3333 63C67.3333 58.4 63.6 54.6667 58.9917 54.6667ZM59 69.6667C55.3167 69.6667 52.3333 66.6833 52.3333 63C52.3333 59.3167 55.3167 56.3333 59 56.3333C62.6833 56.3333 65.6667 59.3167 65.6667 63C65.6667 66.6833 62.6833 69.6667 59 69.6667ZM58.1667 58.8333H59.4167V63.2083L63.1667 65.4333L62.5417 66.4583L58.1667 63.8333V58.8333Z" fill="white"/>
</svg>
