<svg width="166" height="165" viewBox="0 0 166 165" fill="none" xmlns="http://www.w3.org/2000/svg">
<rect x="9.5" y="12.5" width="146" height="132" rx="1.5" stroke="#13391E"/>
<rect x="17" y="31" width="52" height="102" rx="2" fill="#13391E"/>
<rect x="71" y="67" width="71" height="66" rx="2" fill="#13391E"/>
<path fill-rule="evenodd" clip-rule="evenodd" d="M42.9842 40.1667C34.2442 40.1667 27.1667 47.26 27.1667 56C27.1667 64.74 34.2442 71.8333 42.9842 71.8333C51.74 71.8333 58.8333 64.74 58.8333 56C58.8333 47.26 51.74 40.1667 42.9842 40.1667ZM43 68.6667C36.0017 68.6667 30.3333 62.9983 30.3333 56C30.3333 49.0017 36.0017 43.3333 43 43.3333C49.9983 43.3333 55.6667 49.0017 55.6667 56C55.6667 62.9983 49.9983 68.6667 43 68.6667ZM41.4167 48.0833H43.7917V56.3958L50.9167 60.6233L49.7292 62.5708L41.4167 57.5833V48.0833Z" fill="white"/>
<rect x="81" y="92" width="12" height="34" rx="1" fill="white"/>
<rect x="101" y="92" width="12" height="34" rx="1" fill="white"/>
<rect x="121" y="92" width="12" height="34" rx="1" fill="white"/>
</svg>
